# xmcd CD database file generated by LOLA_Freedb v0.9beta0
# 
# Track frame offsets:
#      150
#      14757
#      29355
#      45315
# 
# Disc length: 897 seconds
# 
# Revision: 0 
# Processed by: cddbd v1.5.1PL2 Copyright (c) Steve Scherf et al.
# Submitted via: LOLA_Freedb v0.9beta0
# 
DISCID=29037f04
DTITLE=Easy Rider - 5555 Miles On The Road
DYEAR=1997
DGENRE=
TTITLE0=Easy Rider - Easy Rider Music
TTITLE1=Easy Rider - The Rose
TTITLE2=Easy Rider - Insidersong
TTITLE3=Easy Rider - Frei wie der Wind
EXTD=
EXTT0=
EXTT1=
EXTT2=
EXTT3=
PLAYORDER=
